<?xml version="1.0" encoding="UTF-8"?>
<!--
  FloofLife brand mark — paw + green check overlay on cream
  background. Silhouette matches the user's reference (image 73):
  outer toes splay outward, inner toes slight inward lean, heel
  pad with wing-top + wide rounded bottom. Same shape used by
  the in-app PawgressPaw (so the brand mark + Pawgress paw read
  as the same identity).

  Export to PNG:
    qlmanage -t -s 1024 -o . logo-paw-check.svg
-->
<svg xmlns="http://www.w3.org/2000/svg" viewBox="0 0 320 280" width="320" height="280">
  <!-- Cream background, rounded card -->
  <rect width="320" height="280" rx="24" fill="#FBE4DC"/>

  <!-- Paw — fill-only for crisp edges. Translated + scaled into
       the 320×280 canvas. Inner viewBox is 0 0 200 200. -->
  <g transform="translate(60 40)" fill="#C04A2C">
    <ellipse cx="50"  cy="90" rx="14" ry="26" transform="rotate(-28 50 90)"/>
    <ellipse cx="82"  cy="60" rx="16" ry="28" transform="rotate(-8 82 60)"/>
    <ellipse cx="118" cy="60" rx="16" ry="28" transform="rotate(8 118 60)"/>
    <ellipse cx="150" cy="90" rx="14" ry="26" transform="rotate(28 150 90)"/>
    <path d="M 50 130 C 32 100 54 80 80 100 C 86 88 96 88 100 100 C 104 88 114 88 120 100 C 146 80 168 100 150 130 C 165 162 132 192 100 196 C 68 192 35 162 50 130 Z"/>
  </g>

  <!-- Green check badge — bottom-right of the paw -->
  <g transform="translate(220 200)">
    <circle r="34" fill="#3F8E5C" stroke="#FBE4DC" stroke-width="4"/>
    <path d="M -13 0 L -4 9 L 15 -10" stroke="#fff" stroke-width="6" stroke-linecap="round" stroke-linejoin="round" fill="none"/>
  </g>
</svg>
